<?xml version="1.0" standalone="no"?>
<!DOCTYPE svg PUBLIC "-//W3C//DTD SVG 20010904//EN"
 "http://www.w3.org/TR/2001/REC-SVG-20010904/DTD/svg10.dtd">
<svg version="1.0" xmlns="http://www.w3.org/2000/svg"
 width="512.000000pt" height="512.000000pt" viewBox="0 0 512.000000 512.000000"
 preserveAspectRatio="xMidYMid meet">
<metadata>
Created by potrace 1.11, written by Peter Selinger 2001-2013
</metadata>
<g transform="translate(0.000000,512.000000) scale(0.100000,-0.100000)"
fill="#000000" stroke="none">
<path d="M3955 3563 c-256 -16 -735 -73 -863 -102 -23 -5 -193 -111 -442 -277
l-405 -270 -217 -43 c-368 -72 -815 -191 -1209 -321 -268 -88 -409 -174 -463
-282 -30 -59 -33 -112 -10 -166 13 -32 74 -267 74 -286 0 -4 -13 -12 -30 -17
-27 -10 -30 -15 -30 -55 0 -24 -1 -47 -2 -51 -4 -12 80 -50 162 -72 183 -50
599 -101 821 -101 122 0 164 12 81 24 -62 8 -155 40 -217 74 -40 22 -51 33
-53 57 -3 24 3 35 28 56 l31 26 -16 64 c-13 51 -22 68 -44 81 -21 12 -30 25
-33 53 -8 67 1 91 47 124 42 30 43 32 50 103 6 60 22 112 53 170 2 4 -9 8 -25
10 -28 3 -27 3 22 40 98 74 212 124 375 167 273 72 555 126 895 172 132 18
218 23 496 25 l335 3 290 139 c159 76 328 156 376 176 130 55 334 91 631 112
l87 6 0 158 0 158 -43 10 c-139 35 -493 52 -752 35z"/>
<path d="M4640 2908 c-47 -4 -163 -24 -259 -44 -155 -31 -188 -42 -305 -97
-72 -33 -162 -78 -201 -98 -283 -148 -462 -243 -472 -251 -7 -5 -90 -18 -185
-29 -332 -37 -524 -80 -701 -155 -90 -39 -114 -57 -160 -123 -50 -73 -68 -149
-66 -279 l1 -113 -33 -25 c-19 -14 -34 -30 -34 -37 0 -7 38 -31 85 -55 159
-79 123 -77 1355 -74 l1080 2 0 692 c0 453 -3 692 -10 693 -5 1 -48 -2 -95 -7z"/>
</g>
</svg>
